<?xml version="1.0" encoding="utf-8"?>
<!-- Generator: Adobe Illustrator 26.0.2, SVG Export Plug-In . SVG Version: 6.00 Build 0)  -->
<svg version="1.1" id="compromiso_Naturgy" xmlns="http://www.w3.org/2000/svg" xmlns:xlink="http://www.w3.org/1999/xlink" x="0px"
	 y="0px" viewBox="0 0 62 53" style="enable-background:new 0 0 62 53;" xml:space="preserve">
<style type="text/css">
	.st0{fill:#FF7300;}
	.st1{fill:#004373;}
	.st2{fill:url(#SVGID_1_);}
</style>
<g>
	<path class="st0" d="M61.3,23.9c0.1-0.1,0.1-0.1,0.2-0.1c0.1,0,0.1,0.1,0.1,0.2c0,0.7-3.6,4.9-4.6,5.9c-0.9,0.8-1.5,1.3-1.8,1.3
		c-0.1,0-0.2-0.1-0.2-0.2c0-0.5,0.8-2,0.8-2v0l-1.5,1.3c-0.3,0.3-0.8,0.4-1.1,0.4c-0.7,0-1.3-0.5-1.3-1.8v-6.7
		c0-0.3,0.2-0.4,0.4-0.4c0.1,0,0.3,0.1,0.5,0.2c1,0.7,2.4,1.9,3.4,3.6c0.2,0.3,0.2,0.5,0.2,0.8c0,0.9-0.7,1.8-1.4,2.5v0L61.3,23.9z"
		/>
	<path class="st1" d="M19.4,26.9c-0.6,0-1.1,0-1.5,0.1c-0.4,0.1-0.5,0.3-0.5,0.6c0,0.2,0,0.5,0,0.7c0,0.1,0.1,0.1,0.2,0.1
		c0.6-0.1,1.1-0.1,1.6-0.1c0.6,0,1,0,1.2,0.2c0.1,0.1,0.2,0.3,0.2,0.6v0.2c-0.5-0.1-1-0.1-1.4-0.1c-0.9,0-1.5,0.2-1.9,0.5
		c-0.3,0.3-0.5,0.7-0.5,1.2c0,1.1,0.8,1.8,2.6,1.8c0.9,0,1.8-0.1,2.3-0.4c0.3-0.1,0.4-0.3,0.4-0.6v-2.3c0-0.9-0.2-1.5-0.6-1.8
		C21.2,27,20.5,26.9,19.4,26.9z M20.6,31c0,0.1-0.1,0.2-0.2,0.2c-0.3,0.1-0.6,0.1-0.9,0.1c-0.8,0-1.1-0.2-1.1-0.6
		c0-0.2,0-0.3,0.1-0.4c0.1-0.1,0.4-0.2,0.7-0.2h1.4V31z M26.9,31.1c0-0.1-0.1-0.1-0.1-0.1c0,0,0,0-0.1,0c-0.4,0.1-0.9,0.2-1.2,0.2
		c-0.3,0-0.5-0.1-0.6-0.2c-0.1-0.1-0.2-0.3-0.2-0.6v-2h1.4c0.2,0,0.3-0.1,0.4-0.2c0.1-0.1,0.1-0.3,0.1-0.5c0-0.2,0-0.4,0-0.5
		c0-0.1-0.1-0.1-0.2-0.1h-1.7v-1.6h-1.3c-0.2,0-0.3,0.1-0.3,0.3v5c0,0.7,0.2,1.2,0.5,1.5c0.3,0.3,0.9,0.5,1.5,0.5
		c0.5,0,1-0.1,1.4-0.3c0.3-0.1,0.4-0.3,0.4-0.5c0-0.1,0-0.2,0-0.3C27.1,31.5,27,31.2,26.9,31.1z M14.2,25.3V30
		c-1.2-1.7-2.5-3.4-3.4-4.6c-0.1-0.1-0.2-0.2-0.3-0.2c-0.2-0.1-0.4-0.1-0.6-0.1c-0.4,0-0.7,0.1-0.8,0.2c-0.1,0.1-0.2,0.3-0.2,0.5
		v6.6h1.4c0.2,0,0.2-0.1,0.2-0.2v-4.6c1.1,1.5,2.4,3.3,3.4,4.6c0.1,0.1,0.2,0.2,0.3,0.2c0.2,0.1,0.4,0.1,0.6,0.1
		c0.4,0,0.7-0.1,0.8-0.2c0.1-0.1,0.2-0.3,0.2-0.5v-6.6h-1.4C14.3,25.1,14.2,25.2,14.2,25.3z M48.4,27c-0.2,0-0.3,0.1-0.3,0.3V30
		c0,0.4-0.1,0.7-0.3,0.9c-0.2,0.2-0.5,0.3-0.8,0.3c-0.3,0-0.6-0.1-0.7-0.3C46.1,30.8,46,30.5,46,30V27h-1.3c-0.2,0-0.3,0.1-0.3,0.3
		v2.9c0,0.8,0.2,1.4,0.6,1.7c0.4,0.4,0.9,0.6,1.6,0.6c0.6,0,1.1-0.3,1.4-0.6v0.1c0,0.4-0.1,0.6-0.2,0.8c-0.2,0.2-0.6,0.3-1.2,0.3
		c-0.4,0-0.9-0.1-1.3-0.1c-0.2,0-0.2,0.1-0.3,0.2c0,0.1,0,0.4,0,0.5c0,0.3,0.1,0.5,0.5,0.6c0.4,0.1,0.9,0.1,1.4,0.1
		c1,0,1.7-0.3,2.1-0.7c0.4-0.5,0.6-1.1,0.6-2V27H48.4z M31.5,27.3v2.9c0,0.4-0.1,0.6-0.2,0.8c-0.2,0.2-0.4,0.3-0.8,0.3
		c-0.4,0-0.6-0.1-0.8-0.3c-0.2-0.2-0.2-0.4-0.2-0.8V27h-1.2c-0.2,0-0.3,0.1-0.3,0.3v3.1c0,0.7,0.2,1.2,0.6,1.6
		c0.4,0.4,1.1,0.7,2,0.7c0.9,0,1.6-0.2,2-0.7c0.4-0.4,0.6-0.9,0.6-1.6V27h-1.3C31.5,27,31.5,27.1,31.5,27.3z M40.7,26.9
		c-1.7,0-2.8,1.1-2.8,2.9c0,1.7,0.9,2.8,2.5,2.8c0.7,0,1.2-0.2,1.5-0.6v0.2c0,0.4-0.1,0.7-0.2,0.8c-0.2,0.2-0.7,0.3-1.3,0.3
		c-0.4,0-0.9-0.1-1.4-0.1c-0.1,0-0.2,0-0.3,0.2c0,0.2,0,0.4,0,0.5c0,0.4,0.1,0.5,0.5,0.6c0.4,0.1,0.9,0.1,1.4,0.1
		c1.1,0,1.8-0.2,2.2-0.7c0.4-0.4,0.6-1.1,0.6-1.9v-2.5c0-0.9-0.2-1.5-0.7-1.9C42.3,27.1,41.5,26.9,40.7,26.9z M41.9,29.7
		c0,0.5-0.1,0.9-0.4,1.2c-0.2,0.2-0.5,0.3-0.8,0.3c-0.9,0-1.2-0.6-1.2-1.5c0-1,0.5-1.5,1.2-1.5c0.4,0,0.7,0.1,0.9,0.3
		c0.2,0.2,0.3,0.5,0.3,0.9V29.7z M37.2,27c-0.2-0.1-0.6-0.2-1-0.2c-0.6,0-1.2,0.1-1.5,0.5c-0.4,0.3-0.6,0.8-0.6,1.6v3.4
		c0,0.1,0.1,0.2,0.2,0.2h1.4v-3.2c0-0.4,0.1-0.6,0.2-0.8c0.1-0.2,0.4-0.2,0.8-0.2c0.2,0,0.4,0,0.7,0c0.1,0,0.2,0,0.2-0.1
		c0-0.1,0.1-0.4,0.1-0.6C37.5,27.3,37.4,27.1,37.2,27z"/>
	<path class="st0" d="M46.2,44.3c-4.8,4.8-11.1,7.4-17.8,7.4c-13.9,0-25.2-11.3-25.2-25.2S14.5,1.3,28.4,1.3
		c10.6,0,19.7,6.6,23.4,15.8c0.2-0.1,0.5-0.2,0.8-0.3C48.7,7.3,39.3,0.5,28.4,0.5c-14.3,0-26,11.7-26,26s11.7,26,26,26
		c6.9,0,13.5-2.7,18.4-7.6c2.2-2.2,3.9-4.7,5.2-7.4c-0.3-0.1-0.5-0.2-0.7-0.3C50,39.8,48.3,42.2,46.2,44.3z M28.4,2.5
		c10.1,0,18.8,6.3,22.3,15.2c0.1,0,0.2-0.1,0.3-0.1c-3.6-9-12.4-15.3-22.6-15.3C15,2.2,4.1,13.1,4.1,26.5S15,50.8,28.4,50.8
		c9.8,0,18.2-5.8,22.1-14.1c-0.1-0.1-0.2-0.1-0.3-0.2C46.4,44.8,38,50.5,28.4,50.5c-13.2,0-24-10.8-24-24S15.2,2.5,28.4,2.5z"/>
	<linearGradient id="SVGID_1_" gradientUnits="userSpaceOnUse" x1="8.7258" y1="21.1564" x2="43.4498" y2="21.1564">
		<stop  offset="0" style="stop-color:#FFAB66"/>
		<stop  offset="0.18" style="stop-color:#FF7300"/>
		<stop  offset="0.43" style="stop-color:#FF7300"/>
		<stop  offset="0.54" style="stop-color:#FF9E4F"/>
		<stop  offset="0.65" style="stop-color:#FF9E4F"/>
		<stop  offset="0.77" style="stop-color:#FF7300"/>
		<stop  offset="0.93" style="stop-color:#FF811A"/>
	</linearGradient>
	<path class="st2" d="M20.4,21.6c0-0.3,0-0.5,0-0.8c-0.1-0.4-0.2-0.7-0.4-1c-0.2-0.2-0.4-0.3-0.7-0.3c-0.3,0-0.6,0.1-0.8,0.2
		c-0.2,0.1-0.3,0.2-0.5,0.2c-0.1,0-0.1-0.1-0.1-0.1c-0.2-0.2-0.5-0.3-0.8-0.2c-0.1,0-0.3,0.1-0.4,0.1c-0.1,0.1-0.2,0.1-0.4,0.1
		c0,0,0,0,0,0c0,0,0-0.1,0-0.1c0-0.2-0.1-0.2-0.3-0.2c0,0,0,0-0.1,0c-0.2,0-0.2,0.1-0.2,0.3c0,0.2,0,0.5,0,0.7c0,0.3,0,0.7,0,1
		c0,0.2,0,0.5,0,0.7c0,0,0,0.1,0,0.1c0,0.1,0.1,0.2,0.1,0.3c0.1,0.1,0.2,0.1,0.3,0.1c0.1,0,0.3,0,0.3-0.2c0-0.2,0-0.4,0-0.5
		c0-0.2,0-0.3,0-0.5c0-0.3,0-0.6,0-0.8c0-0.1,0-0.1,0-0.2c0.2-0.1,0.5-0.2,0.8-0.2c0.2,0,0.3,0,0.4,0.2c0.1,0.2,0.1,0.4,0.1,0.7
		c0,0.3,0,0.7,0,1c0,0.2,0.1,0.3,0.2,0.4c0,0,0.1,0.1,0.2,0.1c0.2,0,0.2-0.2,0.3-0.2c0,0,0.1,0,0.1-0.1c0-0.1,0-0.2,0-0.2
		c0-0.1,0-0.2,0-0.4c0-0.4,0-0.8,0-1.2c0,0,0-0.1,0-0.1c0,0,0.1-0.1,0.1-0.1c0.2-0.1,0.5-0.1,0.7-0.2c0.1,0,0.1,0,0.2,0
		c0.1,0,0.2,0.1,0.3,0.2c0,0.1,0,0.1,0.1,0.2c0.1,0.2,0.1,0.5,0.1,0.7c0,0.3,0,0.6,0,0.9c0,0.1,0,0.3,0.1,0.4
		c0.1,0.2,0.2,0.2,0.4,0.1c0.1-0.1,0.1-0.1,0.2-0.1c0-0.2,0.1-0.4,0.1-0.7C20.5,21.8,20.4,21.7,20.4,21.6z M11.6,21.9
		c-0.1,0-0.1-0.1-0.2-0.2c-0.1,0-0.2,0-0.4,0.1c-0.1,0.1-0.3,0.1-0.4,0.2c-0.3,0.1-0.6,0.1-0.9-0.1c-0.1-0.1-0.2-0.2-0.2-0.3
		c-0.1-0.3,0-0.6,0-0.8c0-0.1,0.1-0.2,0.1-0.3c0.1-0.1,0.2-0.2,0.4-0.2c0.3,0,0.6,0.2,0.9,0.3c0.3,0.2,0.5,0.1,0.6-0.2
		c0-0.2-0.2-0.3-0.4-0.5c-0.3-0.2-0.6-0.3-0.9-0.4c-0.5-0.1-0.9,0-1.2,0.4c-0.2,0.3-0.4,0.7-0.4,1c0,0.2,0,0.5,0,0.7
		c0,0.1,0.1,0.3,0.2,0.4c0.2,0.2,0.4,0.4,0.6,0.5c0.3,0.1,0.6,0.2,0.9,0.1c0.3-0.1,0.6-0.2,0.8-0.3c0.1-0.1,0.2-0.1,0.2-0.2
		C11.7,22.1,11.7,22,11.6,21.9z M36.1,18.7c0,0.1,0.1,0.2,0.2,0.3c0.1,0,0.2,0,0.3,0c0.1,0,0.2-0.2,0.2-0.3c0-0.1,0-0.2,0-0.3
		c-0.1-0.1-0.1-0.1-0.3-0.2c-0.3,0-0.3,0.1-0.4,0.3c0,0,0,0.1,0,0.1C36.1,18.6,36.1,18.6,36.1,18.7z M14.4,19.9
		c-0.3-0.2-0.6-0.3-1-0.3c-0.2,0-0.4,0.1-0.5,0.2c-0.1,0.1-0.3,0.2-0.4,0.3c-0.1,0.1-0.2,0.2-0.2,0.3c-0.1,0.3-0.2,0.5-0.2,0.8
		c0,0.1,0,0.2,0,0.3c0,0.1,0.1,0.2,0.1,0.3c0.3,0.7,0.8,1,1.5,1c0.2,0,0.4-0.1,0.5-0.2c0.2-0.1,0.4-0.3,0.6-0.5
		c0.2-0.3,0.3-0.7,0.2-1.1C15,20.5,14.8,20.2,14.4,19.9z M14.2,21.7c-0.1,0.2-0.3,0.3-0.5,0.3c-0.3,0-0.5-0.1-0.7-0.3
		c-0.1-0.1-0.2-0.2-0.2-0.3c0-0.3,0-0.6,0.2-0.9c0.4-0.1,0.7-0.2,1,0c0.2,0.1,0.3,0.3,0.4,0.5C14.4,21.2,14.4,21.5,14.2,21.7z
		 M35.4,21.6c0-0.3,0-0.5,0-0.8c-0.1-0.4-0.2-0.7-0.4-1c-0.2-0.2-0.4-0.3-0.7-0.3c-0.3,0-0.6,0.1-0.8,0.2c-0.2,0.1-0.3,0.2-0.5,0.2
		c-0.1,0-0.1-0.1-0.1-0.1c-0.2-0.2-0.5-0.3-0.8-0.2c-0.1,0-0.3,0.1-0.4,0.1c-0.1,0.1-0.2,0.1-0.4,0.1c0,0,0,0,0,0c0,0,0-0.1,0-0.1
		c0-0.2-0.1-0.2-0.3-0.2c0,0,0,0-0.1,0c-0.2,0-0.2,0.1-0.2,0.3c0,0.2,0,0.5,0,0.7c0,0.3,0,0.7,0,1c0,0.2,0,0.5,0,0.7
		c0,0,0,0.1,0,0.1c0,0.1,0.1,0.2,0.1,0.3c0.1,0.1,0.2,0.1,0.3,0.1c0.1,0,0.3,0,0.3-0.2c0-0.2,0-0.4,0-0.5c0-0.2,0-0.3,0-0.5
		c0-0.3,0-0.6,0-0.8c0-0.1,0-0.1,0-0.2c0.2-0.1,0.5-0.2,0.8-0.2c0.2,0,0.3,0,0.4,0.2c0.1,0.2,0.1,0.4,0.1,0.7c0,0.3,0,0.7,0,1
		c0,0.2,0.1,0.3,0.2,0.4c0,0,0.1,0.1,0.2,0.1c0.2,0,0.2-0.2,0.3-0.2c0,0,0.1,0,0.1-0.1c0-0.1,0-0.2,0-0.2c0-0.1,0-0.2,0-0.4
		c0-0.4,0-0.8,0-1.2c0,0,0-0.1,0-0.1c0,0,0.1-0.1,0.1-0.1c0.2-0.1,0.5-0.1,0.7-0.2c0.1,0,0.1,0,0.2,0c0.1,0,0.2,0.1,0.3,0.2
		c0,0.1,0,0.1,0.1,0.2c0.1,0.2,0.1,0.5,0.1,0.7c0,0.3,0,0.6,0,0.9c0,0.1,0,0.3,0.1,0.4c0.1,0.2,0.2,0.2,0.4,0.1
		c0.1-0.1,0.1-0.1,0.2-0.1c0-0.2,0.1-0.4,0.1-0.7C35.4,21.8,35.4,21.7,35.4,21.6z M40,19.7c-0.2-0.1-0.4-0.2-0.5-0.2
		c-0.2,0-0.3,0-0.5-0.1c-0.2,0-0.4,0-0.5,0c-0.1,0-0.3,0.1-0.4,0.1c-0.3,0.2-0.4,0.5-0.4,0.9c0,0.3,0.1,0.5,0.4,0.7
		c0.3,0.1,0.5,0.2,0.8,0.3c0.2,0.1,0.3,0.2,0.4,0.3c0.1,0.1,0,0.2-0.1,0.3c-0.2,0-0.4,0.1-0.6,0.1c-0.2,0-0.4-0.1-0.6-0.1
		c-0.2-0.1-0.4,0.1-0.4,0.4c0,0.1,0,0.1,0.1,0.1c0.1,0,0.2,0.1,0.4,0.1c0.3,0,0.6,0.1,0.9,0.1c0.7,0.1,1-0.3,1.2-0.8
		c0-0.1,0-0.1,0-0.2c0-0.4-0.2-0.6-0.5-0.8c-0.2-0.1-0.5-0.2-0.8-0.3c-0.2,0-0.3-0.1-0.4-0.3c0-0.1,0.1-0.2,0.2-0.2
		c0.2-0.1,0.3,0,0.5,0c0.2,0,0.5,0.1,0.7,0.1c0.1,0,0.2,0,0.3-0.1C40.1,20,40.1,19.9,40,19.7C40,19.8,40,19.7,40,19.7z M23.9,20.1
		c-0.2-0.4-0.7-0.7-1.2-0.6c-0.1,0-0.2,0.1-0.4,0.1c-0.2,0.1-0.3,0.1-0.5,0.2c0,0,0,0,0-0.1c0,0,0,0,0-0.1c0-0.2-0.1-0.3-0.3-0.3
		c0,0-0.1,0-0.1,0c-0.1,0-0.2,0.1-0.2,0.2c0,0.1,0,0.2,0,0.2c0,0.3,0,0.7,0,1c0,0.3,0,0.7,0,1c0,0.6,0,1.1,0,1.7c0,0.1,0,0.2,0,0.3
		c0,0.1,0,0.1,0.1,0.1c0.1,0.1,0.3,0.1,0.5,0.1c0.2-0.1,0.2-0.2,0.2-0.3c0-0.2,0-0.4-0.1-0.6c0,0,0,0,0-0.1c0-0.2,0-0.3,0-0.6
		c0.2,0.1,0.4,0.2,0.6,0.2c0.4,0.1,0.7,0.1,1.1-0.1c0,0,0.1,0,0.1-0.1c0.3-0.1,0.4-0.3,0.5-0.6c0.1-0.3,0.1-0.7,0.1-1
		C24.1,20.7,24,20.4,23.9,20.1z M23.3,21.8C23.2,22,23.2,22,23,22c-0.4,0-0.8-0.1-1.2-0.4c0-0.3,0-0.7,0.1-1
		c0.2-0.1,0.5-0.2,0.7-0.3c0.4-0.1,0.7,0.1,0.8,0.4C23.5,21.1,23.4,21.5,23.3,21.8z M36.8,21.7c0-0.3,0-0.5,0-0.8c0-0.2,0-0.4,0-0.7
		c0-0.2,0-0.4,0-0.6c0-0.1-0.1-0.2-0.2-0.2c-0.1,0-0.1,0-0.2,0c-0.2,0-0.4,0.1-0.4,0.3c0,0.5,0,1.1,0,1.6c0,0.3,0,0.6,0,0.8
		c0,0.1,0,0.2,0.1,0.3c0.1,0.2,0.4,0.3,0.6,0.1c0.1,0,0.1-0.1,0.1-0.2c0-0.2,0-0.3-0.1-0.5C36.8,21.9,36.8,21.8,36.8,21.7z M43.4,21
		c-0.1-0.5-0.3-0.8-0.7-1.1c-0.3-0.2-0.6-0.3-1-0.3c-0.2,0-0.4,0.1-0.5,0.2c-0.1,0.1-0.3,0.2-0.4,0.3c-0.1,0.1-0.2,0.2-0.2,0.3
		c-0.1,0.3-0.2,0.5-0.2,0.8c0,0.1,0,0.2,0,0.3c0,0.1,0.1,0.2,0.1,0.3c0.3,0.7,0.8,1,1.5,1c0.2,0,0.4-0.1,0.5-0.2
		c0.2-0.1,0.4-0.3,0.6-0.5C43.4,21.7,43.5,21.4,43.4,21z M42.6,21.7C42.4,21.9,42.3,22,42,22c-0.3,0-0.5-0.1-0.7-0.3
		c-0.1-0.1-0.2-0.2-0.2-0.3c0-0.3,0-0.6,0.2-0.9c0.4-0.1,0.7-0.2,1,0c0.2,0.1,0.3,0.3,0.4,0.5C42.7,21.2,42.7,21.5,42.6,21.7z
		 M26.6,19.6c-0.2,0-0.5,0-0.7,0.1c-0.2,0.1-0.3,0.2-0.5,0.3c0-0.1,0-0.2,0-0.3c0-0.2-0.1-0.2-0.2-0.3c0,0-0.1,0-0.1,0
		c-0.1,0-0.3,0.1-0.3,0.2c0,0.2,0,0.3,0,0.5c0,0.5,0,0.9,0,1.4c0,0.2,0,0.3,0,0.5c0,0.2,0,0.4,0,0.6c0,0.1,0,0.1,0.1,0.2
		c0.1,0.1,0.2,0.1,0.3,0.1c0.2,0,0.3-0.1,0.3-0.3c0-0.3,0-0.5,0-0.8c0-0.3,0-0.7,0-1c0.2,0,0.3-0.1,0.5-0.2c0.2-0.1,0.5-0.2,0.7-0.2
		c0.1,0,0.1,0,0.2-0.1c0-0.1,0.1-0.2,0.1-0.3C26.9,19.7,26.8,19.6,26.6,19.6z M29.3,19.9c-0.3-0.2-0.6-0.3-1-0.3
		c-0.2,0-0.4,0.1-0.5,0.2c-0.1,0.1-0.3,0.2-0.4,0.3c-0.1,0.1-0.2,0.2-0.2,0.3C27,20.6,27,20.9,27,21.2c0,0.1,0,0.2,0,0.3
		c0,0.1,0.1,0.2,0.1,0.3c0.3,0.7,0.8,1,1.5,1c0.2,0,0.4-0.1,0.5-0.2c0.2-0.1,0.4-0.3,0.6-0.5C30,21.7,30,21.4,30,21
		C29.9,20.5,29.7,20.2,29.3,19.9z M29.1,21.7C29,21.9,28.8,22,28.6,22c-0.3,0-0.5-0.1-0.7-0.3c-0.1-0.1-0.2-0.2-0.2-0.3
		c0-0.3,0-0.6,0.2-0.9c0.4-0.1,0.7-0.2,1,0c0.2,0.1,0.3,0.3,0.4,0.5C29.3,21.2,29.2,21.5,29.1,21.7z"/>
</g>
</svg>
